<?xml version="1.0" encoding="UTF-8"?>
<svg id="logo" xmlns="http://www.w3.org/2000/svg" viewBox="0 0 504.94 543">
  <defs>
    <style>
      .cls-1 {
        opacity: .07;
      }

      .cls-2 {
        opacity: .14;
      }

      .cls-3 {
        fill: #a166f2;
      }

      .cls-3, .cls-4, .cls-5 {
        stroke: #18191a;
        stroke-miterlimit: 10;
        stroke-width: 3px;
      }

      .cls-4 {
        fill: #eceff1;
      }

      .cls-5 {
        fill: #66d7e5;
      }
    </style>
  </defs>
  <path class="cls-5" d="M252.33,271.57h0s.14,0,0,0c.14,0,0,0,0,0Z"/>
  <path class="cls-4" d="M252.47,271.57h0c.84-1.25,1.67-2.65,2.51-3.9,10.46-19.24,16.59-41.27,16.59-64.83,0-25.24-6.97-48.8-18.96-69.02-12.13,20.22-18.96,43.78-18.96,69.02,0,23.42,6,45.59,16.59,64.83,.56,1.25,1.39,2.51,2.23,3.9-.14,0,0,0,0,0Z"/>
  <path class="cls-5" d="M252.47,271.57s-.14,0,0,0c-.14,0,0,0,0,0h0Z"/>
  <path class="cls-4" d="M368.33,205.76c-47.54,0-89.51,24.68-113.49,61.91-.7,1.25-1.53,2.51-2.23,3.9,49.22,0,92.16-26.49,115.72-65.81Z"/>
  <path class="cls-4" d="M252.61,271.57c-.14,.14-.14,.28-.14,.28,.84,1.39,1.53,2.65,2.37,4.04,23.98,37.37,65.95,62.04,113.63,62.04h.28c-23.56-39.74-66.65-66.37-116.14-66.37Z"/>
  <path class="cls-5" d="M252.47,271.57h0Z"/>
  <path class="cls-5" d="M252.61,271.57c.7-1.25,1.53-2.51,2.23-3.9-.84,1.25-1.67,2.51-2.51,3.9h.28Z"/>
  <path class="cls-5" d="M252.47,271.57q0,.14,0,0c.14,0,.14-.14,.28-.14l-.28,.14h0Z"/>
  <g class="cls-1">
    <path class="cls-4" d="M252.47,133.82c23.56-39.46,66.65-65.95,116-65.95h.28C345.33,28.13,301.96,1.5,252.61,1.5s-92.72,26.63-116.28,66.37h.28c49.22,.14,92.16,26.63,115.86,65.95Z"/>
    <path class="cls-4" d="M252.47,409.74c-23.56,39.46-66.65,65.95-115.86,65.95,23.56,39.46,66.65,65.81,115.86,65.81s92.44-26.35,115.86-65.81c-49.22,.14-92.3-26.35-115.86-65.95Z"/>
    <path class="cls-4" d="M368.33,205.76h0c49.36,0,92.58,26.49,116.14,66.09,11.99-20.22,18.96-43.78,18.96-68.88,0-74.45-60.23-134.83-134.69-134.97,11.85,20.08,18.82,43.5,18.82,68.6-.14,25.24-7.11,48.94-19.24,69.16Z"/>
    <path class="cls-4" d="M136.33,205.76q.14,0,0,0c-11.99-20.22-18.96-43.92-18.96-69.16s6.83-48.52,18.82-68.6C61.73,68.15,1.5,128.52,1.5,202.97c0,25.24,6.83,48.8,18.96,68.88,23.42-39.6,66.51-66.09,115.86-66.09Z"/>
    <path class="cls-4" d="M368.61,337.8c11.85,20.08,18.82,43.5,18.82,68.6s-6.97,48.94-19.1,69.16h.14c74.59,0,134.97-60.37,134.97-134.97,0-25.24-6.83-48.8-18.96-68.88-23.42,39.6-66.51,66.09-115.86,66.09Z"/>
    <path class="cls-4" d="M136.19,337.8c-49.22-.14-92.3-26.63-115.72-66.09-11.99,20.22-18.96,43.78-18.96,68.88,0,74.59,60.37,134.97,134.97,134.97h.14c-12.13-20.22-19.1-43.92-19.1-69.16-.14-24.96,6.83-48.38,18.68-68.6Z"/>
  </g>
  <g class="cls-2">
    <path class="cls-4" d="M252.47,133.82c12.13,20.22,18.96,43.78,18.96,69.02,0,23.42-6,45.45-16.59,64.83,23.98-37.23,65.81-61.91,113.49-61.91,12.13-20.22,19.1-43.92,19.1-69.16s-6.83-48.52-18.82-68.6h-.28c-49.22,0-92.3,26.49-115.86,65.81Z"/>
    <path class="cls-4" d="M136.47,205.76c47.54,0,89.51,24.68,113.49,62.04-10.46-19.24-16.59-41.27-16.59-64.83,0-25.24,6.97-48.8,18.96-69.02-23.56-39.46-66.65-65.95-116-65.95h-.28c-11.85,20.08-18.82,43.5-18.82,68.6,.14,25.24,7.11,48.94,19.24,69.16Z"/>
    <path class="cls-4" d="M368.61,337.8h-.28c-47.68,0-89.51-24.68-113.63-62.04,10.46,19.24,16.59,41.27,16.59,64.83,0,25.24-6.97,48.8-18.96,69.02,23.56,39.46,66.65,65.95,115.86,65.95,12.13-20.22,19.1-43.92,19.1-69.16,.14-24.96-6.83-48.38-18.68-68.6Z"/>
    <path class="cls-4" d="M368.47,205.76q-.14,0,0,0c-23.56,39.32-66.65,65.67-115.72,65.81h0c49.36,.14,92.58,26.63,116,66.37,49.22-.14,92.3-26.63,115.72-66.09-23.56-39.6-66.65-66.09-116-66.09Z"/>
    <path class="cls-4" d="M252.47,409.74c-12.13-20.22-18.96-43.78-18.96-69.02,0-23.42,6-45.45,16.59-64.83-23.98,37.23-65.95,61.91-113.49,61.91h-.28c-11.85,20.08-18.82,43.5-18.82,68.6s6.97,48.94,19.1,69.16c49.22,.28,92.16-26.21,115.86-65.81Z"/>
    <path class="cls-4" d="M136.19,337.8c23.42-39.6,66.65-66.23,116-66.37h0c-49.22-.14-92.16-26.49-115.72-65.81h-.14c-49.36,0-92.58,26.49-116.14,66.09,23.56,39.6,66.65,66.09,116,66.09Z"/>
  </g>
  <path class="cls-4" d="M136.47,205.76c23.42,39.32,66.51,65.67,115.72,65.81-.7-1.25-1.53-2.51-2.23-3.9-23.98-37.23-65.81-61.91-113.49-61.91Z"/>
  <path class="cls-4" d="M252.19,271.57c-49.36,.14-92.58,26.63-116,66.37h.28c47.54,0,89.51-24.68,113.49-61.91,.7-1.39,1.53-2.79,2.37-4.18,0-.14-.14-.28-.14-.28Z"/>
  <path class="cls-3" d="M252.33,271.57h0Z"/>
  <path class="cls-3" d="M249.96,267.67c.7,1.25,1.39,2.51,2.23,3.9h.28c-.84-1.39-1.67-2.65-2.51-3.9Z"/>
  <path class="cls-3" d="M252.47,271.57h0c-.14-.14-.28-.14-.28-.14,.14,.14,.14,.28,.14,.28,0,0,.14,0,.14-.14Z"/>
  <path class="cls-4" d="M249.96,275.89c-10.46,19.24-16.59,41.27-16.59,64.83,0,25.24,6.97,48.8,18.96,69.02,12.13-20.22,18.96-43.78,18.96-69.02,0-23.42-6-45.59-16.59-64.83-.84-1.25-1.67-2.51-2.51-3.9-.56,1.25-1.39,2.65-2.23,3.9Z"/>
  <path class="cls-3" d="M252.47,271.99c.84,1.25,1.53,2.65,2.51,3.9-.7-1.39-1.53-2.65-2.37-4.04q-.14,0-.14,.14Z"/>
  <path class="cls-3" d="M252.33,271.85c-.84,1.39-1.67,2.79-2.37,4.18,.98-1.39,1.67-2.79,2.37-4.18,.14,0,0,0,0,0Z"/>
  <path class="cls-3" d="M252.33,271.85s.14,.14,0,0q.14,0,0,0,.14-.14,0,0c.14-.14,0-.14,0,0Z"/>
</svg>