<?xml version="1.0" encoding="UTF-8"?>
<svg id="Layer_1" data-name="Layer 1" xmlns="http://www.w3.org/2000/svg" viewBox="0 0 249.38 267.95">
  <defs>
    <style>
      .cls-1 {
        opacity: .05;
      }

      .cls-1, .cls-2, .cls-3 {
        fill: #cabbdc;
        stroke: #1c1b1f;
        stroke-miterlimit: 10;
        stroke-width: 3.95px;
      }

      .cls-1, .cls-3 {
        isolation: isolate;
      }

      .cls-4 {
        opacity: .15;
      }

      .cls-3 {
        opacity: .5;
      }
    </style>
  </defs>
  <g id="Alternative_8" data-name="Alternative 8">
    <g>
      <path class="cls-1" d="m124.66,66.63c11.53-19.32,32.59-32.22,56.73-32.22h.13C170.03,14.98,148.87,1.97,124.7,1.97s-45.35,13-56.84,32.44h.13c24.08,0,45.14,12.9,56.66,32.22Z"/>
      <path class="cls-1" d="m124.66,201.56c-11.53,19.28-32.59,32.22-56.69,32.22,11.53,19.28,32.59,32.2,56.69,32.2s45.18-12.92,56.69-32.2c-24.1,0-45.16-12.94-56.69-32.22Z"/>
      <path class="cls-1" d="m181.37,101.76h0c24.16,0,45.27,12.98,56.79,32.33,5.88-9.88,9.25-21.41,9.25-33.67,0-36.43-29.48-65.93-65.87-66,5.82,9.83,9.18,21.3,9.18,33.54-.04,12.38-3.45,23.95-9.36,33.8Z"/>
      <path class="cls-1" d="m67.93,101.76s.04,0,0,0c-5.88-9.9-9.27-21.47-9.27-33.8s3.34-23.75,9.18-33.54C31.46,34.47,1.97,64,1.97,100.41c0,12.31,3.37,23.84,9.25,33.67,11.48-19.34,32.57-32.33,56.71-32.33Z"/>
      <path class="cls-2" d="m124.7,133.95s-.04,0,0,0c-.04,0,0,0,0,0h0Z"/>
      <path class="cls-2" d="m124.64,133.95h0s.02,0,0,0c.02,0,0,0,0,0Z"/>
      <path class="cls-2" d="m124.66,133.95s.04,0,0,0c.39-.63.8-1.28,1.19-1.89,5.15-9.4,8.1-20.17,8.1-31.68,0-12.35-3.41-23.88-9.27-33.78-5.91,9.88-9.27,21.43-9.27,33.78,0,11.48,2.93,22.3,8.1,31.7.37.61.76,1.24,1.15,1.87-.02,0,0,0,0,0Z"/>
      <path class="cls-2" d="m124.66,133.95s-.02,0,0,0c-.04,0,0,.04,0,.04,0,0,.04-.04,0-.04.04,0,0,0,0,0Z"/>
      <path class="cls-1" d="m181.5,166.39c5.82,9.83,9.18,21.3,9.18,33.54s-3.41,23.95-9.31,33.8h.04c36.45,0,66-29.55,66-66,0-12.31-3.37-23.84-9.25-33.67-11.51,19.34-32.57,32.28-56.66,32.33Z"/>
      <path class="cls-2" d="m181.37,101.76c-23.27,0-43.75,12.09-55.47,30.29-.37.63-.72,1.26-1.09,1.89,24.03,0,45.03-12.92,56.56-32.17Z"/>
      <path class="cls-2" d="m124.79,133.95s-.04.11-.07.13c.39.65.76,1.32,1.13,1.98,11.75,18.26,32.22,30.35,55.54,30.35h.13c-11.48-19.41-32.59-32.41-56.73-32.46Z"/>
      <path class="cls-2" d="m124.7,133.95h.11-.11Z"/>
      <path class="cls-2" d="m124.79,133.95c.37-.63.72-1.26,1.09-1.89-.39.63-.8,1.26-1.19,1.89h.11Z"/>
      <path class="cls-2" d="m124.66,134s.04.07.04.07c.04-.04.04-.11.07-.13h-.11s0,.07,0,.07Z"/>
      <path class="cls-1" d="m67.84,166.39c-24.1-.04-45.14-13-56.62-32.33-5.88,9.88-9.25,21.41-9.25,33.67,0,36.45,29.55,66,66,66h.04c-5.91-9.9-9.31-21.47-9.31-33.8-.04-12.22,3.32-23.71,9.14-33.54Z"/>
      <g class="cls-4">
        <path class="cls-3" d="m124.66,66.63c5.91,9.88,9.27,21.43,9.27,33.78,0,11.48-2.93,22.25-8.1,31.68,11.75-18.24,32.2-30.29,55.47-30.29,5.91-9.9,9.31-21.47,9.31-33.8s-3.34-23.75-9.18-33.54h-.13c-24.06-.04-45.11,12.85-56.64,32.18Z"/>
        <path class="cls-3" d="m67.97,101.76c23.27,0,43.75,12.09,55.51,30.31-5.15-9.4-8.1-20.21-8.1-31.7,0-12.35,3.41-23.88,9.27-33.78-11.53-19.32-32.59-32.22-56.73-32.22h-.13c-5.82,9.83-9.18,21.3-9.18,33.54.04,12.42,3.45,23.99,9.36,33.85Z"/>
        <path class="cls-3" d="m181.5,166.39h-.13c-23.32,0-43.79-12.09-55.54-30.35,5.15,9.4,8.12,20.21,8.12,31.7,0,12.35-3.41,23.88-9.27,33.78,11.53,19.28,32.59,32.22,56.69,32.22,5.91-9.9,9.31-21.47,9.31-33.8,0-12.22-3.39-23.71-9.18-33.54Z"/>
        <path class="cls-3" d="m181.39,101.76s-.02,0,0,0c-11.53,19.26-32.57,32.13-56.6,32.2h0c24.14.04,45.24,13.05,56.73,32.44,24.1-.04,45.14-13,56.62-32.33-11.51-19.32-32.61-32.31-56.75-32.31Z"/>
        <path class="cls-3" d="m124.66,201.56c-5.91-9.88-9.27-21.43-9.27-33.78,0-11.48,2.93-22.25,8.1-31.68-11.75,18.24-32.22,30.29-55.51,30.29h-.13c-5.82,9.83-9.18,21.3-9.18,33.54s3.41,23.95,9.31,33.8c24.1.04,45.16-12.9,56.69-32.17Z"/>
        <path class="cls-3" d="m67.84,166.39c11.46-19.39,32.57-32.39,56.73-32.44h0c-24.03-.04-45.07-12.94-56.56-32.2h-.04c-24.14,0-45.27,12.98-56.77,32.33,11.46,19.32,32.52,32.26,56.64,32.31Z"/>
      </g>
      <path class="cls-2" d="m67.97,101.76c11.48,19.26,32.52,32.13,56.56,32.2-.37-.63-.72-1.26-1.06-1.89-11.7-18.22-32.17-30.26-55.49-30.31Z"/>
      <path class="cls-2" d="m124.53,133.95c-24.14.04-45.24,13.05-56.73,32.44h.13c23.27,0,43.75-12.05,55.51-30.29.37-.69.76-1.35,1.15-2.02,0-.02-.02-.09-.07-.13Z"/>
      <path class="cls-2" d="m124.64,133.95h-.11.11Z"/>
      <path class="cls-2" d="m123.47,132.08c.33.63.69,1.26,1.06,1.89h.11c-.37-.65-.76-1.28-1.17-1.89Z"/>
      <path class="cls-2" d="m124.66,134l-.04-.04h-.11s.04.11.07.13c.07-.02.09-.07.09-.09Z"/>
      <path class="cls-2" d="m123.47,136.1c-5.15,9.4-8.1,20.17-8.1,31.68,0,12.35,3.41,23.88,9.27,33.78,5.91-9.88,9.27-21.43,9.27-33.78,0-11.48-2.93-22.3-8.12-31.7-.39-.63-.8-1.26-1.19-1.89-.33.63-.72,1.28-1.13,1.91Z"/>
      <path class="cls-2" d="m124.66,134.15c.39.63.76,1.28,1.19,1.89-.37-.65-.76-1.32-1.13-1.98-.02.07-.07.07-.07.09Z"/>
      <path class="cls-2" d="m124.64,134.08c-.39.65-.8,1.35-1.15,2.02.43-.63.82-1.28,1.19-1.95-.02-.02-.04-.02-.04-.07Z"/>
      <path class="cls-2" d="m124.64,134.08s.04.07.04.07c0-.04.04-.07.04-.07,0-.04-.04-.07-.04-.07,0,0-.04.04-.04.07Z"/>
    </g>
  </g>
</svg>