<?xml version="1.0" encoding="UTF-8"?>
<svg id="Layer_1" data-name="Layer 1" xmlns="http://www.w3.org/2000/svg" viewBox="0 0 167.58 179.95">
  <defs>
    <style>
      .cls-1 {
        opacity: .05;
      }

      .cls-1, .cls-2, .cls-3 {
        fill: #3a6a1e;
        stroke: #fdfdf5;
        stroke-miterlimit: 10;
        stroke-width: 3.95px;
      }

      .cls-1, .cls-3 {
        isolation: isolate;
      }

      .cls-4 {
        opacity: .15;
      }

      .cls-3 {
        opacity: .5;
      }
    </style>
  </defs>
  <g id="Alternative_8" data-name="Alternative 8">
    <g>
      <path class="cls-1" d="m83.76,45.08c7.68-12.88,21.73-21.48,37.82-21.48h.09C114.01,10.65,99.9,1.98,83.79,1.98s-30.24,8.67-37.89,21.62h.09c16.05,0,30.09,8.6,37.78,21.48Z"/>
      <path class="cls-1" d="m83.76,135.03c-7.68,12.86-21.73,21.48-37.79,21.48,7.68,12.86,21.73,21.46,37.79,21.46s30.12-8.62,37.79-21.46c-16.07,0-30.1-8.62-37.79-21.48Z"/>
      <path class="cls-1" d="m121.57,68.5h0c16.11,0,30.18,8.66,37.87,21.55,3.92-6.58,6.17-14.27,6.17-22.45,0-24.29-19.66-43.96-43.91-44,3.88,6.56,6.12,14.19,6.12,22.36-.03,8.25-2.31,15.96-6.24,22.54h0Z"/>
      <path class="cls-1" d="m45.94,68.5s.03,0,0,0c-3.92-6.6-6.18-14.32-6.18-22.54s2.23-15.83,6.12-22.36c-24.26.04-43.91,19.73-43.91,44,0,8.21,2.24,15.89,6.17,22.45,7.66-12.89,21.71-21.55,37.8-21.55h0Z"/>
      <path class="cls-2" d="m83.79,89.97s-.03,0,0,0c-.03,0,0,0,0,0h0Z"/>
      <path class="cls-2" d="m83.74,89.97h0s.02,0,0,0c.02,0,0,0,0,0Z"/>
      <path class="cls-2" d="m83.76,89.97s.03,0,0,0c.26-.42.54-.85.79-1.26,3.43-6.27,5.39-13.45,5.39-21.12,0-8.24-2.27-15.92-6.18-22.52-3.93,6.58-6.18,14.28-6.18,22.52,0,7.66,1.95,14.86,5.39,21.13.25.4.51.83.77,1.24-.02,0,0,0,0,0h0Z"/>
      <path class="cls-2" d="m83.76,89.97s-.02,0,0,0c-.03,0,0,.03,0,.03,0,0,.03-.03,0-.03.03,0,0,0,0,0Z"/>
      <path class="cls-1" d="m121.65,111.59c3.88,6.56,6.12,14.19,6.12,22.36s-2.27,15.96-6.21,22.54h.03c24.31,0,44-19.69,44-44,0-8.21-2.24-15.89-6.17-22.45-7.67,12.89-21.71,21.52-37.78,21.55h0Z"/>
      <path class="cls-2" d="m121.57,68.5c-15.51,0-29.16,8.06-36.98,20.19-.25.42-.48.84-.72,1.26,16.02,0,30.02-8.62,37.71-21.45h0Z"/>
      <path class="cls-2" d="m83.85,89.97s-.03.07-.04.09c.26.43.51.88.76,1.32,7.83,12.17,21.48,20.23,37.02,20.23h.09c-7.66-12.94-21.73-21.61-37.82-21.64Z"/>
      <path class="cls-2" d="m83.79,89.97h.07-.07Z"/>
      <path class="cls-2" d="m83.85,89.97c.25-.42.48-.84.72-1.26-.26.42-.54.84-.79,1.26h.07Z"/>
      <path class="cls-2" d="m83.76,89.99l.03.04s.03-.07.04-.09h-.07s0,.04,0,.04Z"/>
      <path class="cls-1" d="m45.89,111.59c-16.07-.03-30.09-8.67-37.74-21.55-3.92,6.58-6.17,14.27-6.17,22.45,0,24.31,19.69,44,44,44h.03c-3.93-6.6-6.21-14.32-6.21-22.54-.03-8.15,2.22-15.8,6.09-22.36h0Z"/>
      <g class="cls-4">
        <path class="cls-3" d="m83.76,45.08c3.93,6.58,6.18,14.28,6.18,22.52,0,7.66-1.95,14.84-5.39,21.12,7.83-12.16,21.46-20.19,36.98-20.19,3.93-6.6,6.21-14.32,6.21-22.54s-2.23-15.83-6.12-22.36h-.09c-16.03-.03-30.08,8.57-37.76,21.45h0Z"/>
        <path class="cls-3" d="m45.97,68.5c15.51,0,29.16,8.06,37.01,20.2-3.43-6.27-5.39-13.47-5.39-21.13,0-8.24,2.27-15.92,6.18-22.52-7.68-12.88-21.73-21.48-37.82-21.48h-.09c-3.88,6.56-6.12,14.19-6.12,22.36.03,8.28,2.31,15.99,6.24,22.56Z"/>
        <path class="cls-3" d="m121.65,111.59h-.09c-15.54,0-29.19-8.06-37.02-20.23,3.43,6.27,5.41,13.47,5.41,21.13,0,8.24-2.27,15.92-6.18,22.52,7.68,12.86,21.73,21.48,37.79,21.48,3.93-6.6,6.21-14.32,6.21-22.54s-2.26-15.8-6.12-22.36h0Z"/>
        <path class="cls-3" d="m121.58,68.5s-.02,0,0,0c-7.68,12.84-21.71,21.42-37.73,21.46h0c16.1.03,30.17,8.69,37.82,21.62,16.07-.03,30.09-8.67,37.74-21.55-7.67-12.88-21.74-21.53-37.83-21.53h0Z"/>
        <path class="cls-3" d="m83.76,135.03c-3.93-6.58-6.18-14.28-6.18-22.52,0-7.66,1.95-14.84,5.39-21.12-7.83,12.16-21.48,20.19-37.01,20.19h-.09c-3.88,6.56-6.12,14.19-6.12,22.36s2.27,15.96,6.21,22.54c16.07.03,30.1-8.6,37.79-21.45h0Z"/>
        <path class="cls-3" d="m45.89,111.59c7.64-12.93,21.71-21.6,37.82-21.62h0c-16.02-.03-30.04-8.62-37.71-21.46h-.03c-16.1,0-30.18,8.66-37.85,21.55,7.64,12.88,21.68,21.51,37.76,21.53Z"/>
      </g>
      <path class="cls-2" d="m45.97,68.5c7.66,12.84,21.68,21.42,37.71,21.46-.25-.42-.48-.84-.71-1.26-7.81-12.14-21.45-20.18-37-20.2Z"/>
      <path class="cls-2" d="m83.67,89.97c-16.1.03-30.17,8.69-37.82,21.62h.09c15.51,0,29.16-8.03,37.01-20.19.25-.47.51-.9.77-1.35,0-.02-.02-.06-.04-.09Z"/>
      <path class="cls-2" d="m83.74,89.97h-.07.07Z"/>
      <path class="cls-2" d="m82.96,88.72c.22.42.47.84.71,1.26h.07c-.25-.43-.51-.85-.78-1.26Z"/>
      <path class="cls-2" d="m83.76,89.99l-.03-.03h-.07s.03.07.04.09c.04-.02.06-.04.06-.06h0Z"/>
      <path class="cls-2" d="m82.96,91.4c-3.43,6.27-5.39,13.45-5.39,21.12,0,8.24,2.27,15.92,6.18,22.52,3.93-6.58,6.18-14.28,6.18-22.52,0-7.66-1.95-14.86-5.41-21.13-.26-.42-.54-.84-.79-1.26-.22.42-.48.85-.76,1.28h0Z"/>
      <path class="cls-2" d="m83.76,90.1c.26.42.51.85.79,1.26-.25-.43-.51-.88-.76-1.32-.02.04-.04.04-.04.06h0Z"/>
      <path class="cls-2" d="m83.74,90.05c-.26.43-.54.9-.77,1.35.29-.42.55-.85.79-1.3-.02-.02-.03-.02-.03-.04Z"/>
      <path class="cls-2" d="m83.74,90.05l.03.04s.03-.04.03-.04c0-.03-.03-.04-.03-.04,0,0-.03.03-.03.04Z"/>
    </g>
  </g>
</svg>