<?xml version="1.0" encoding="UTF-8"?>
<svg id="Layer_1" data-name="Layer 1" xmlns="http://www.w3.org/2000/svg" viewBox="0 0 505.98 543.95">
  <defs>
    <style>
      .cls-1 {
        opacity: .05;
      }

      .cls-1, .cls-2 {
        isolation: isolate;
      }

      .cls-1, .cls-2, .cls-3 {
        fill: #d0bcff;
        stroke: #1c1b1f;
        stroke-miterlimit: 10;
        stroke-width: 3.95px;
      }

      .cls-2 {
        opacity: .5;
      }

      .cls-4 {
        opacity: .15;
      }
    </style>
  </defs>
  <g id="Alternative_8" data-name="Alternative 8">
    <g>
      <path class="cls-1" d="m252.92,134.22c23.58-39.52,66.66-65.9,116.04-65.9h.27C345.74,28.57,302.44,1.97,253.01,1.97s-92.77,26.6-116.26,66.35h.27c49.25,0,92.32,26.38,115.9,65.9Z"/>
      <path class="cls-1" d="m252.92,410.22c-23.58,39.43-66.66,65.9-115.95,65.9,23.58,39.43,66.66,65.86,115.95,65.86s92.41-26.42,115.95-65.86c-49.29,0-92.37-26.47-115.95-65.9Z"/>
      <path class="cls-1" d="m368.92,206.07h0c49.43,0,92.59,26.56,116.17,66.12,12.03-20.21,18.92-43.79,18.92-68.88,0-74.52-60.31-134.87-134.73-135,11.9,20.12,18.78,43.56,18.78,68.61-.09,25.31-7.06,48.98-19.14,69.14Z"/>
      <path class="cls-1" d="m136.88,206.07q.09,0,0,0c-12.03-20.25-18.96-43.92-18.96-69.14s6.84-48.58,18.78-68.61C62.28,68.45,1.97,128.85,1.97,203.32c0,25.18,6.88,48.76,18.92,68.88,23.49-39.57,66.61-66.12,115.99-66.12Z"/>
      <path class="cls-3" d="m253.01,271.93s-.09,0,0,0c-.09,0,0,0,0,0h0Z"/>
      <path class="cls-3" d="m252.88,271.93h0s.04,0,0,0c.04,0,0,0,0,0Z"/>
      <path class="cls-3" d="m252.92,271.93s.09,0,0,0c.8-1.29,1.64-2.62,2.44-3.86,10.52-19.23,16.56-41.25,16.56-64.79,0-25.27-6.97-48.85-18.96-69.1-12.08,20.21-18.96,43.83-18.96,69.1,0,23.49,6,45.61,16.56,64.84.75,1.24,1.55,2.53,2.35,3.82-.04,0,0,0,0,0Z"/>
      <path class="cls-3" d="m252.92,271.93s-.04,0,0,0c-.09,0,0,.09,0,.09,0,0,.09-.09,0-.09.09,0,0,0,0,0Z"/>
      <path class="cls-1" d="m369.18,338.27c11.9,20.12,18.78,43.56,18.78,68.61s-6.97,48.98-19.05,69.14h.09c74.56,0,135-60.44,135-135,0-25.18-6.88-48.76-18.92-68.88-23.54,39.57-66.61,66.03-115.9,66.12Z"/>
      <path class="cls-3" d="m368.92,206.07c-47.61,0-89.48,24.74-113.46,61.95-.75,1.29-1.47,2.58-2.22,3.86,49.16,0,92.1-26.42,115.68-65.81Z"/>
      <path class="cls-3" d="m253.19,271.93c-.09.09-.09.22-.13.27.8,1.33,1.55,2.71,2.31,4.04,24.02,37.35,65.9,62.08,113.6,62.08h.27c-23.49-39.7-66.66-66.3-116.04-66.39Z"/>
      <path class="cls-3" d="m253.01,271.93h.22-.22Z"/>
      <path class="cls-3" d="m253.19,271.93c.75-1.29,1.47-2.58,2.22-3.86-.8,1.29-1.64,2.58-2.44,3.86h.22Z"/>
      <path class="cls-3" d="m252.92,272.02c0,.09.09.13.09.13.09-.09.09-.22.13-.27h-.22c.09.04,0,.13,0,.13Z"/>
      <path class="cls-1" d="m136.71,338.27c-49.29-.09-92.32-26.6-115.82-66.12-12.03,20.21-18.92,43.79-18.92,68.88,0,74.56,60.44,135,135,135h.09c-12.08-20.25-19.05-43.92-19.05-69.14-.09-25,6.79-48.49,18.7-68.61Z"/>
      <g class="cls-4">
        <path class="cls-2" d="m252.92,134.22c12.08,20.21,18.96,43.83,18.96,69.1,0,23.49-6,45.52-16.56,64.79,24.02-37.3,65.86-61.95,113.46-61.95,12.08-20.25,19.05-43.92,19.05-69.14s-6.84-48.58-18.78-68.61h-.27c-49.2-.09-92.28,26.29-115.86,65.81Z"/>
        <path class="cls-2" d="m136.97,206.07c47.61,0,89.48,24.74,113.55,61.99-10.52-19.23-16.56-41.34-16.56-64.84,0-25.27,6.97-48.85,18.96-69.1-23.58-39.52-66.66-65.9-116.04-65.9h-.27c-11.9,20.12-18.78,43.56-18.78,68.61.09,25.4,7.06,49.07,19.14,69.23Z"/>
        <path class="cls-2" d="m369.18,338.27h-.27c-47.69,0-89.57-24.74-113.6-62.08,10.52,19.23,16.61,41.34,16.61,64.84,0,25.27-6.97,48.85-18.96,69.1,23.58,39.43,66.66,65.9,115.95,65.9,12.08-20.25,19.05-43.92,19.05-69.14,0-25-6.93-48.49-18.78-68.61Z"/>
        <path class="cls-2" d="m368.96,206.07s-.04,0,0,0c-23.58,39.39-66.61,65.72-115.77,65.86h0c49.38.09,92.55,26.69,116.04,66.35,49.29-.09,92.32-26.6,115.82-66.12-23.54-39.52-66.7-66.08-116.08-66.08Z"/>
        <path class="cls-2" d="m252.92,410.22c-12.08-20.21-18.96-43.83-18.96-69.1,0-23.49,6-45.52,16.56-64.79-24.02,37.3-65.9,61.95-113.55,61.95h-.27c-11.9,20.12-18.78,43.56-18.78,68.61s6.97,48.98,19.05,69.14c49.29.09,92.37-26.38,115.95-65.81Z"/>
        <path class="cls-2" d="m136.71,338.27c23.45-39.66,66.61-66.26,116.04-66.35h0c-49.16-.09-92.19-26.47-115.68-65.86h-.09c-49.38,0-92.59,26.56-116.13,66.12,23.45,39.52,66.52,65.99,115.86,66.08Z"/>
      </g>
      <path class="cls-3" d="m136.97,206.07c23.49,39.39,66.52,65.72,115.68,65.86-.75-1.29-1.47-2.58-2.18-3.86-23.94-37.26-65.81-61.9-113.51-61.99Z"/>
      <path class="cls-3" d="m252.66,271.93c-49.38.09-92.55,26.69-116.04,66.35h.27c47.61,0,89.48-24.65,113.55-61.95.75-1.42,1.55-2.75,2.35-4.13,0-.04-.04-.18-.13-.27Z"/>
      <path class="cls-3" d="m252.88,271.93h-.22.22Z"/>
      <path class="cls-3" d="m250.48,268.11c.67,1.29,1.42,2.58,2.18,3.86h.22c-.75-1.33-1.55-2.62-2.4-3.86Z"/>
      <path class="cls-3" d="m252.92,272.02l-.09-.09h-.22c.09.09.09.22.13.27.13-.04.18-.13.18-.18Z"/>
      <path class="cls-3" d="m250.48,276.33c-10.52,19.23-16.56,41.25-16.56,64.79,0,25.27,6.97,48.85,18.96,69.1,12.08-20.21,18.96-43.83,18.96-69.1,0-23.49-6-45.61-16.61-64.84-.8-1.29-1.64-2.58-2.44-3.86-.67,1.29-1.47,2.62-2.31,3.91Z"/>
      <path class="cls-3" d="m252.92,272.33c.8,1.29,1.55,2.62,2.44,3.86-.75-1.33-1.55-2.71-2.31-4.04-.04.13-.13.13-.13.18Z"/>
      <path class="cls-3" d="m252.88,272.2c-.8,1.33-1.64,2.75-2.35,4.13.89-1.29,1.69-2.62,2.44-4-.04-.04-.09-.04-.09-.13Z"/>
      <path class="cls-3" d="m252.88,272.2c0,.09.09.13.09.13,0-.09.09-.13.09-.13,0-.09-.09-.13-.09-.13,0,0-.09.09-.09.13Z"/>
    </g>
  </g>
</svg>