<?xml version="1.0" encoding="utf-8"?>
<!-- Generator: Adobe Illustrator 27.5.0, SVG Export Plug-In . SVG Version: 6.00 Build 0)  -->
<svg version="1.1" id="Layer_1" xmlns="http://www.w3.org/2000/svg" xmlns:xlink="http://www.w3.org/1999/xlink" x="0px" y="0px"
	 viewBox="0 0 192 192" style="enable-background:new 0 0 192 192;" xml:space="preserve">
<style type="text/css">
	.st0{opacity:5.000000e-02;fill:#CABBDC;stroke:#1C1B1F;stroke-width:3.95;stroke-miterlimit:10;enable-background:new    ;}
	.st1{fill:#CABBDC;stroke:#1C1B1F;stroke-width:3.95;stroke-miterlimit:10;}
	.st2{opacity:0.15;}
	.st3{opacity:0.5;fill:#CABBDC;stroke:#1C1B1F;stroke-width:3.95;stroke-miterlimit:10;enable-background:new    ;}
</style>
<g id="Alternative_8">
	<g>
		<path class="st0" d="M96,51.1c7.7-12.9,21.7-21.5,37.8-21.5h0.1C126.2,16.7,112.1,8,96,8s-30.2,8.7-37.9,21.6h0.1
			C74.2,29.6,88.3,38.2,96,51.1z"/>
		<path class="st0" d="M96,141.1c-7.7,12.9-21.7,21.5-37.8,21.5C65.9,175.4,79.9,184,96,184s30.1-8.6,37.8-21.5
			C117.7,162.5,103.7,153.9,96,141.1z"/>
		<path class="st0" d="M133.8,74.5L133.8,74.5c16.1,0,30.2,8.7,37.9,21.6c3.9-6.6,6.2-14.3,6.2-22.4c0-24.3-19.7-44-43.9-44
			c3.9,6.6,6.1,14.2,6.1,22.4C140,60.2,137.7,68,133.8,74.5L133.8,74.5z"/>
		<path class="st0" d="M58.2,74.5C58.2,74.5,58.2,74.5,58.2,74.5C54.2,67.9,52,60.2,52,52s2.2-15.8,6.1-22.4
			c-24.3,0-43.9,19.7-43.9,44c0,8.2,2.2,15.9,6.2,22.4C28,83.2,42.1,74.5,58.2,74.5L58.2,74.5z"/>
		<path class="st1" d="M96,96C96,96,96,96,96,96C96,96,96,96,96,96L96,96z"/>
		<path class="st1" d="M96,96L96,96C96,96,96,96,96,96C96,96,96,96,96,96z"/>
		<path class="st1" d="M96,96C96,96,96,96,96,96c0.3-0.4,0.5-0.9,0.8-1.3c3.4-6.3,5.4-13.4,5.4-21.1c0-8.2-2.3-15.9-6.2-22.5
			c-3.9,6.6-6.2,14.3-6.2,22.5c0,7.7,2,14.9,5.4,21.1C95.4,95.1,95.7,95.6,96,96C95.9,96,96,96,96,96L96,96z"/>
		<path class="st1" d="M96,96C96,96,96,96,96,96C95.9,96,96,96,96,96C96,96,96,96,96,96C96,96,96,96,96,96z"/>
		<path class="st0" d="M133.9,117.6c3.9,6.6,6.1,14.2,6.1,22.4s-2.3,16-6.2,22.5h0c24.3,0,44-19.7,44-44c0-8.2-2.2-15.9-6.2-22.4
			C164,109,149.9,117.6,133.9,117.6L133.9,117.6z"/>
		<path class="st1" d="M133.8,74.5c-15.5,0-29.2,8.1-37,20.2c-0.2,0.4-0.5,0.8-0.7,1.3C112.1,96,126.1,87.4,133.8,74.5L133.8,74.5z"
			/>
		<path class="st1" d="M96.1,96C96.1,96,96,96.1,96.1,96c0.2,0.5,0.5,1,0.7,1.4c7.8,12.2,21.5,20.2,37,20.2h0.1
			C126.2,104.7,112.2,96,96.1,96z"/>
		<path class="st1" d="M96,96L96,96L96,96z"/>
		<path class="st1" d="M96.1,96c0.2-0.4,0.5-0.8,0.7-1.3C96.5,95.2,96.2,95.6,96.1,96L96.1,96z"/>
		<path class="st1" d="M96,96L96,96C96,96,96,96,96,96L96,96C96,96,96,96,96,96z"/>
		<path class="st0" d="M58.1,117.6c-16.1,0-30.1-8.7-37.7-21.6c-3.9,6.6-6.2,14.3-6.2,22.4c0,24.3,19.7,44,44,44h0
			c-3.9-6.6-6.2-14.3-6.2-22.5C52,131.8,54.2,124.2,58.1,117.6L58.1,117.6z"/>
		<g class="st2">
			<path class="st3" d="M96,51.1c3.9,6.6,6.2,14.3,6.2,22.5c0,7.7-2,14.8-5.4,21.1c7.8-12.2,21.5-20.2,37-20.2
				c3.9-6.6,6.2-14.3,6.2-22.5s-2.2-15.8-6.1-22.4h-0.1C117.7,29.6,103.7,38.2,96,51.1L96,51.1z"/>
			<path class="st3" d="M58.2,74.5c15.5,0,29.2,8.1,37,20.2c-3.4-6.3-5.4-13.5-5.4-21.1c0-8.2,2.3-15.9,6.2-22.5
				c-7.7-12.9-21.7-21.5-37.8-21.5h-0.1c-3.9,6.6-6.1,14.2-6.1,22.4C52,60.2,54.2,68,58.2,74.5z"/>
			<path class="st3" d="M133.9,117.6L133.9,117.6c-15.6,0-29.3-8.1-37.1-20.2c3.4,6.3,5.4,13.5,5.4,21.1c0,8.2-2.3,15.9-6.2,22.5
				c7.7,12.9,21.7,21.5,37.8,21.5c3.9-6.6,6.2-14.3,6.2-22.5C140,131.8,137.7,124.2,133.9,117.6L133.9,117.6z"/>
			<path class="st3" d="M133.8,74.5C133.8,74.5,133.8,74.5,133.8,74.5c-7.7,12.8-21.7,21.4-37.7,21.5l0,0c16.1,0,30.2,8.7,37.8,21.6
				c16.1,0,30.1-8.7,37.7-21.6C163.9,83.2,149.9,74.5,133.8,74.5L133.8,74.5z"/>
			<path class="st3" d="M96,141.1c-3.9-6.6-6.2-14.3-6.2-22.5c0-7.7,2-14.8,5.4-21.1c-7.8,12.2-21.5,20.2-37,20.2h-0.1
				c-3.9,6.6-6.1,14.2-6.1,22.4c0,8.2,2.3,16,6.2,22.5C74.2,162.5,88.3,153.9,96,141.1L96,141.1z"/>
			<path class="st3" d="M58.1,117.6C65.7,104.7,79.8,96,95.9,96l0,0c-16,0-30-8.6-37.7-21.5h0c-16.1,0-30.2,8.7-37.8,21.6
				C28,109,42,117.6,58.1,117.6z"/>
		</g>
		<path class="st1" d="M58.2,74.5C65.8,87.4,79.9,95.9,95.9,96c-0.2-0.4-0.5-0.8-0.7-1.3C87.4,82.6,73.7,74.6,58.2,74.5z"/>
		<path class="st1" d="M95.9,96c-16.1,0-30.2,8.7-37.8,21.6h0.1c15.5,0,29.2-8,37-20.2C95.4,97,95.7,96.5,95.9,96
			C95.9,96.1,95.9,96,95.9,96z"/>
		<path class="st1" d="M96,96L96,96L96,96z"/>
		<path class="st1" d="M95.2,94.7c0.2,0.4,0.5,0.8,0.7,1.3H96C95.7,95.6,95.4,95.1,95.2,94.7z"/>
		<path class="st1" d="M96,96L96,96L96,96C95.9,96,95.9,96.1,96,96C96,96.1,96,96,96,96L96,96z"/>
		<path class="st1" d="M95.2,97.4c-3.4,6.3-5.4,13.4-5.4,21.1c0,8.2,2.3,15.9,6.2,22.5c3.9-6.6,6.2-14.3,6.2-22.5
			c0-7.7-2-14.9-5.4-21.1c-0.3-0.4-0.5-0.8-0.8-1.3C95.7,96.6,95.5,97,95.2,97.4L95.2,97.4z"/>
		<path class="st1" d="M96,96.1c0.3,0.4,0.5,0.9,0.8,1.3C96.5,97,96.3,96.5,96,96.1C96,96.1,96,96.1,96,96.1L96,96.1z"/>
		<path class="st1" d="M96,96.1c-0.3,0.4-0.5,0.9-0.8,1.3C95.5,97,95.7,96.6,96,96.1C96,96.1,96,96.1,96,96.1z"/>
		<path class="st1" d="M96,96.1L96,96.1C96,96.1,96,96.1,96,96.1C96,96.1,96,96,96,96.1C96,96,96,96.1,96,96.1z"/>
	</g>
</g>
</svg>
