<?xml version="1.0" encoding="utf-8"?>
<!-- Generator: Adobe Illustrator 27.5.0, SVG Export Plug-In . SVG Version: 6.00 Build 0)  -->
<svg version="1.1" id="Layer_1" xmlns="http://www.w3.org/2000/svg" xmlns:xlink="http://www.w3.org/1999/xlink" x="0px" y="0px"
	 viewBox="0 0 167.6 179.9" style="enable-background:new 0 0 167.6 179.9;" xml:space="preserve">
<style type="text/css">
	.st0{opacity:5.000000e-02;fill:#D0BCFF;stroke:#141218;stroke-width:3.95;stroke-miterlimit:10;enable-background:new    ;}
	.st1{fill:#D0BCFF;stroke:#141218;stroke-width:3.95;stroke-miterlimit:10;}
	.st2{opacity:0.15;}
	.st3{opacity:0.5;fill:#D0BCFF;stroke:#141218;stroke-width:3.95;stroke-miterlimit:10;enable-background:new    ;}
</style>
<g id="Alternative_8">
	<g>
		<path class="st0" d="M83.8,45.1c7.7-12.9,21.7-21.5,37.8-21.5h0.1C114,10.6,99.9,2,83.8,2s-30.2,8.7-37.9,21.6H46
			C62,23.6,76.1,32.2,83.8,45.1L83.8,45.1z"/>
		<path class="st0" d="M83.8,135C76.1,147.9,62,156.5,46,156.5c7.7,12.9,21.7,21.5,37.8,21.5s30.1-8.6,37.8-21.5
			C105.5,156.5,91.5,147.9,83.8,135L83.8,135z"/>
		<path class="st0" d="M121.6,68.5L121.6,68.5c16.1,0,30.2,8.7,37.9,21.6c3.9-6.6,6.2-14.3,6.2-22.4c0-24.3-19.7-44-43.9-44
			c3.9,6.6,6.1,14.2,6.1,22.4C127.8,54.2,125.5,61.9,121.6,68.5L121.6,68.5L121.6,68.5z"/>
		<path class="st0" d="M45.9,68.5C45.9,68.5,46,68.5,45.9,68.5C42,61.9,39.8,54.2,39.8,46s2.2-15.8,6.1-22.4
			C21.6,23.6,2,43.3,2,67.6c0,8.2,2.2,15.9,6.2,22.5C15.8,77.2,29.8,68.5,45.9,68.5C45.9,68.5,45.9,68.5,45.9,68.5z"/>
		<path class="st1" d="M83.8,90C83.8,90,83.8,90,83.8,90C83.8,90,83.8,90,83.8,90L83.8,90z"/>
		<path class="st1" d="M83.7,90L83.7,90C83.7,90,83.8,90,83.7,90C83.8,90,83.7,90,83.7,90z"/>
		<path class="st1" d="M83.8,90C83.8,90,83.8,90,83.8,90c0.3-0.4,0.5-0.8,0.8-1.3c3.4-6.3,5.4-13.4,5.4-21.1
			c0-8.2-2.3-15.9-6.2-22.5c-3.9,6.6-6.2,14.3-6.2,22.5c0,7.7,1.9,14.9,5.4,21.1C83.2,89.1,83.5,89.5,83.8,90
			C83.7,90,83.7,90,83.8,90L83.8,90L83.8,90z"/>
		<path class="st1" d="M83.8,90C83.8,90,83.7,90,83.8,90C83.7,90,83.8,90,83.8,90C83.8,90,83.8,90,83.8,90C83.8,90,83.8,90,83.8,90z
			"/>
		<path class="st0" d="M121.7,111.6c3.9,6.6,6.1,14.2,6.1,22.4s-2.3,16-6.2,22.5h0c24.3,0,44-19.7,44-44c0-8.2-2.2-15.9-6.2-22.4
			C151.8,102.9,137.7,111.6,121.7,111.6L121.7,111.6L121.7,111.6z"/>
		<path class="st1" d="M121.6,68.5c-15.5,0-29.2,8.1-37,20.2c-0.2,0.4-0.5,0.8-0.7,1.3C99.9,90,113.9,81.3,121.6,68.5L121.6,68.5
			L121.6,68.5z"/>
		<path class="st1" d="M83.8,90C83.8,90,83.8,90,83.8,90c0.2,0.5,0.5,1,0.7,1.4c7.8,12.2,21.5,20.2,37,20.2h0.1
			C114,98.7,99.9,90,83.8,90L83.8,90z"/>
		<path class="st1" d="M83.8,90L83.8,90L83.8,90z"/>
		<path class="st1" d="M83.8,90c0.2-0.4,0.5-0.8,0.7-1.3C84.3,89.1,84,89.5,83.8,90L83.8,90z"/>
		<path class="st1" d="M83.8,90L83.8,90C83.8,90,83.8,90,83.8,90L83.8,90L83.8,90L83.8,90z"/>
		<path class="st0" d="M45.9,111.6c-16.1,0-30.1-8.7-37.7-21.6C4.2,96.6,2,104.3,2,112.5c0,24.3,19.7,44,44,44h0
			c-3.9-6.6-6.2-14.3-6.2-22.5C39.8,125.8,42,118.1,45.9,111.6L45.9,111.6L45.9,111.6z"/>
		<g class="st2">
			<path class="st3" d="M83.8,45.1c3.9,6.6,6.2,14.3,6.2,22.5c0,7.7-1.9,14.8-5.4,21.1c7.8-12.2,21.5-20.2,37-20.2
				c3.9-6.6,6.2-14.3,6.2-22.5s-2.2-15.8-6.1-22.4h-0.1C105.5,23.6,91.4,32.2,83.8,45.1L83.8,45.1L83.8,45.1z"/>
			<path class="st3" d="M46,68.5c15.5,0,29.2,8.1,37,20.2c-3.4-6.3-5.4-13.5-5.4-21.1c0-8.2,2.3-15.9,6.2-22.5
				C76.1,32.2,62,23.6,45.9,23.6h-0.1c-3.9,6.6-6.1,14.2-6.1,22.4C39.8,54.2,42,61.9,46,68.5L46,68.5z"/>
			<path class="st3" d="M121.7,111.6L121.7,111.6c-15.6,0-29.3-8.1-37.1-20.2c3.4,6.3,5.4,13.5,5.4,21.1c0,8.2-2.3,15.9-6.2,22.5
				c7.7,12.9,21.7,21.5,37.8,21.5c3.9-6.6,6.2-14.3,6.2-22.5S125.5,118.1,121.7,111.6L121.7,111.6L121.7,111.6z"/>
			<path class="st3" d="M121.6,68.5C121.6,68.5,121.6,68.5,121.6,68.5C113.9,81.3,99.9,89.9,83.9,90l0,0c16.1,0,30.2,8.7,37.8,21.6
				c16.1,0,30.1-8.7,37.7-21.6C151.7,77.2,137.7,68.5,121.6,68.5L121.6,68.5z"/>
			<path class="st3" d="M83.8,135c-3.9-6.6-6.2-14.3-6.2-22.5c0-7.7,1.9-14.8,5.4-21.1c-7.8,12.2-21.5,20.2-37,20.2h-0.1
				c-3.9,6.6-6.1,14.2-6.1,22.4s2.3,16,6.2,22.5C62,156.5,76.1,147.9,83.8,135L83.8,135L83.8,135z"/>
			<path class="st3" d="M45.9,111.6C53.5,98.7,67.6,90,83.7,90l0,0c-16,0-30-8.6-37.7-21.5h0c-16.1,0-30.2,8.7-37.8,21.6
				C15.8,102.9,29.8,111.6,45.9,111.6L45.9,111.6z"/>
		</g>
		<path class="st1" d="M46,68.5C53.6,81.3,67.7,89.9,83.7,90c-0.2-0.4-0.5-0.8-0.7-1.3C75.2,76.6,61.5,68.5,46,68.5z"/>
		<path class="st1" d="M83.7,90c-16.1,0-30.2,8.7-37.8,21.6h0.1c15.5,0,29.2-8,37-20.2C83.2,90.9,83.5,90.5,83.7,90
			C83.7,90,83.7,90,83.7,90L83.7,90z"/>
		<path class="st1" d="M83.7,90L83.7,90L83.7,90z"/>
		<path class="st1" d="M83,88.7c0.2,0.4,0.5,0.8,0.7,1.3h0.1C83.5,89.6,83.2,89.1,83,88.7z"/>
		<path class="st1" d="M83.8,90L83.8,90L83.8,90C83.7,90,83.7,90,83.8,90C83.7,90,83.8,90,83.8,90L83.8,90z"/>
		<path class="st1" d="M83,91.4c-3.4,6.3-5.4,13.4-5.4,21.1c0,8.2,2.3,15.9,6.2,22.5c3.9-6.6,6.2-14.3,6.2-22.5
			c0-7.7-1.9-14.9-5.4-21.1c-0.3-0.4-0.5-0.8-0.8-1.3C83.5,90.6,83.2,91,83,91.4L83,91.4L83,91.4z"/>
		<path class="st1" d="M83.8,90.1c0.3,0.4,0.5,0.8,0.8,1.3C84.3,90.9,84,90.5,83.8,90.1C83.8,90.1,83.8,90.1,83.8,90.1L83.8,90.1
			L83.8,90.1z"/>
		<path class="st1" d="M83.7,90.1c-0.3,0.4-0.5,0.9-0.8,1.3C83.3,91,83.5,90.6,83.7,90.1C83.7,90.1,83.7,90.1,83.7,90.1L83.7,90.1z"
			/>
		<path class="st1" d="M83.7,90.1L83.7,90.1L83.7,90.1C83.8,90,83.8,90,83.7,90.1C83.8,90,83.7,90,83.7,90.1z"/>
	</g>
</g>
</svg>
