<?xml version="1.0" encoding="UTF-8"?>
<svg id="Layer_1" data-name="Layer 1" xmlns="http://www.w3.org/2000/svg" viewBox="0 0 189.88 203.95">
  <defs>
    <style>
      .cls-1 {
        opacity: .05;
      }

      .cls-1, .cls-2, .cls-3 {
        fill: #6851a2;
        stroke: #fffbfd;
        stroke-miterlimit: 10;
        stroke-width: 3.95px;
      }

      .cls-1, .cls-3 {
        isolation: isolate;
      }

      .cls-4 {
        opacity: .15;
      }

      .cls-3 {
        opacity: .5;
      }
    </style>
  </defs>
  <g id="Alternative_8" data-name="Alternative 8">
    <g>
      <path class="cls-1" d="m94.92,50.95c8.73-14.64,24.69-24.41,42.98-24.41h.1C129.29,11.83,113.26,1.97,94.95,1.97s-34.36,9.85-43.06,24.57h.1c18.24,0,34.19,9.77,42.93,24.41Z"/>
      <path class="cls-1" d="m94.92,153.17c-8.73,14.61-24.69,24.41-42.94,24.41,8.73,14.61,24.69,24.39,42.94,24.39s34.23-9.79,42.94-24.39c-18.26,0-34.21-9.8-42.94-24.41Z"/>
      <path class="cls-1" d="m137.88,77.57h0c18.31,0,34.29,9.84,43.03,24.49,4.46-7.48,7.01-16.22,7.01-25.51,0-27.6-22.34-49.95-49.9-50,4.41,7.45,6.96,16.13,6.96,25.41-.03,9.38-2.62,18.14-7.09,25.61Z"/>
      <path class="cls-1" d="m51.94,77.57s.03,0,0,0c-4.46-7.5-7.02-16.27-7.02-25.61s2.53-17.99,6.96-25.41c-27.57.05-49.9,22.42-49.9,50,0,9.33,2.55,18.06,7.01,25.51,8.7-14.65,24.67-24.49,42.96-24.49Z"/>
      <path class="cls-2" d="m94.95,101.96s-.03,0,0,0c-.03,0,0,0,0,0h0Z"/>
      <path class="cls-2" d="m94.9,101.96h0s.02,0,0,0c.02,0,0,0,0,0Z"/>
      <path class="cls-2" d="m94.92,101.96s.03,0,0,0c.3-.48.61-.97.9-1.43,3.9-7.12,6.13-15.28,6.13-24,0-9.36-2.58-18.09-7.02-25.59-4.47,7.48-7.02,16.23-7.02,25.59,0,8.7,2.22,16.89,6.13,24.01.28.46.58.94.87,1.41-.02,0,0,0,0,0Z"/>
      <path class="cls-2" d="m94.92,101.96s-.02,0,0,0c-.03,0,0,.03,0,.03,0,0,.03-.03,0-.03.03,0,0,0,0,0Z"/>
      <path class="cls-1" d="m137.98,126.53c4.41,7.45,6.96,16.13,6.96,25.41s-2.58,18.14-7.06,25.61h.03c27.62,0,50-22.38,50-50,0-9.33-2.55-18.06-7.01-25.51-8.72,14.65-24.67,24.46-42.93,24.49Z"/>
      <path class="cls-2" d="m137.88,77.57c-17.63,0-33.14,9.16-42.02,22.94-.28.48-.54.95-.82,1.43,18.21,0,34.11-9.79,42.85-24.37Z"/>
      <path class="cls-2" d="m95.02,101.96s-.03.08-.05.1c.3.49.58,1,.86,1.5,8.9,13.83,24.41,22.99,42.07,22.99h.1c-8.7-14.7-24.69-24.56-42.98-24.59Z"/>
      <path class="cls-2" d="m94.95,101.96h.08-.08Z"/>
      <path class="cls-2" d="m95.02,101.96c.28-.48.54-.95.82-1.43-.3.48-.61.95-.9,1.43h.08Z"/>
      <path class="cls-2" d="m94.92,101.99s.03.05.03.05c.03-.03.03-.08.05-.1h-.08s0,.05,0,.05Z"/>
      <path class="cls-1" d="m51.88,126.53c-18.26-.03-34.19-9.85-42.89-24.49-4.46,7.48-7.01,16.22-7.01,25.51,0,27.62,22.38,50,50,50h.03c-4.47-7.5-7.06-16.27-7.06-25.61-.03-9.26,2.52-17.96,6.92-25.41Z"/>
      <g class="cls-4">
        <path class="cls-3" d="m94.92,50.95c4.47,7.48,7.02,16.23,7.02,25.59,0,8.7-2.22,16.86-6.13,24,8.9-13.82,24.39-22.94,42.02-22.94,4.47-7.5,7.06-16.27,7.06-25.61s-2.53-17.99-6.96-25.41h-.1c-18.22-.03-34.18,9.74-42.91,24.38Z"/>
        <path class="cls-3" d="m51.97,77.57c17.63,0,33.14,9.16,42.06,22.96-3.9-7.12-6.13-15.31-6.13-24.01,0-9.36,2.58-18.09,7.02-25.59-8.73-14.64-24.69-24.41-42.98-24.41h-.1c-4.41,7.45-6.96,16.13-6.96,25.41.03,9.41,2.62,18.17,7.09,25.64Z"/>
        <path class="cls-3" d="m137.98,126.53h-.1c-17.66,0-33.17-9.16-42.07-22.99,3.9,7.12,6.15,15.31,6.15,24.01,0,9.36-2.58,18.09-7.02,25.59,8.73,14.61,24.69,24.41,42.94,24.41,4.47-7.5,7.06-16.27,7.06-25.61,0-9.26-2.57-17.96-6.96-25.41Z"/>
        <path class="cls-3" d="m137.89,77.57s-.02,0,0,0c-8.73,14.59-24.67,24.34-42.88,24.39h0c18.29.03,34.28,9.88,42.98,24.57,18.26-.03,34.19-9.85,42.89-24.49-8.72-14.64-24.7-24.47-42.99-24.47Z"/>
        <path class="cls-3" d="m94.92,153.17c-4.47-7.48-7.02-16.23-7.02-25.59,0-8.7,2.22-16.86,6.13-24-8.9,13.82-24.41,22.94-42.06,22.94h-.1c-4.41,7.45-6.96,16.13-6.96,25.41s2.58,18.14,7.06,25.61c18.26.03,34.21-9.77,42.94-24.37Z"/>
        <path class="cls-3" d="m51.88,126.53c8.68-14.69,24.67-24.54,42.98-24.57h0c-18.21-.03-34.14-9.8-42.85-24.39h-.03c-18.29,0-34.29,9.84-43.01,24.49,8.68,14.64,24.64,24.44,42.91,24.47Z"/>
      </g>
      <path class="cls-2" d="m51.97,77.57c8.7,14.59,24.64,24.34,42.85,24.39-.28-.48-.54-.95-.81-1.43-8.87-13.8-24.37-22.93-42.04-22.96Z"/>
      <path class="cls-2" d="m94.82,101.96c-18.29.03-34.28,9.88-42.98,24.57h.1c17.63,0,33.14-9.13,42.06-22.94.28-.53.58-1.02.87-1.53,0-.02-.02-.07-.05-.1Z"/>
      <path class="cls-2" d="m94.9,101.96h-.08.08Z"/>
      <path class="cls-2" d="m94.01,100.54c.25.48.53.95.81,1.43h.08c-.28-.49-.58-.97-.89-1.43Z"/>
      <path class="cls-2" d="m94.92,101.99l-.03-.03h-.08s.03.08.05.1c.05-.02.07-.05.07-.07Z"/>
      <path class="cls-2" d="m94.01,103.59c-3.9,7.12-6.13,15.28-6.13,24,0,9.36,2.58,18.09,7.02,25.59,4.47-7.48,7.02-16.23,7.02-25.59,0-8.7-2.22-16.89-6.15-24.01-.3-.48-.61-.95-.9-1.43-.25.48-.54.97-.86,1.45Z"/>
      <path class="cls-2" d="m94.92,102.11c.3.48.58.97.9,1.43-.28-.49-.58-1-.86-1.5-.02.05-.05.05-.05.07Z"/>
      <path class="cls-2" d="m94.9,102.06c-.3.49-.61,1.02-.87,1.53.33-.48.62-.97.9-1.48-.02-.02-.03-.02-.03-.05Z"/>
      <path class="cls-2" d="m94.9,102.06s.03.05.03.05c0-.03.03-.05.03-.05,0-.03-.03-.05-.03-.05,0,0-.03.03-.03.05Z"/>
    </g>
  </g>
</svg>