<?xml version="1.0" encoding="utf-8"?>
<!-- Generator: Adobe Illustrator 27.5.0, SVG Export Plug-In . SVG Version: 6.00 Build 0)  -->
<svg version="1.1" id="Layer_1" xmlns="http://www.w3.org/2000/svg" xmlns:xlink="http://www.w3.org/1999/xlink" x="0px" y="0px"
	 viewBox="0 0 506 544" style="enable-background:new 0 0 506 544;" xml:space="preserve">
<style type="text/css">
	.st0{opacity:5.000000e-02;fill:#6750A4;stroke:#FFFBFE;stroke-width:3.95;stroke-miterlimit:10;enable-background:new    ;}
	.st1{fill:#6750A4;stroke:#FFFBFE;stroke-width:3.95;stroke-miterlimit:10;}
	.st2{opacity:0.15;}
	.st3{opacity:0.5;fill:#6750A4;stroke:#FFFBFE;stroke-width:3.95;stroke-miterlimit:10;enable-background:new    ;}
</style>
<g id="Alternative_8">
	<g>
		<path class="st0" d="M252.9,134.2c23.6-39.5,66.7-65.9,116-65.9h0.3C345.7,28.6,302.4,2,253,2s-92.8,26.6-116.3,66.3h0.3
			C186.3,68.3,229.3,94.7,252.9,134.2L252.9,134.2z"/>
		<path class="st0" d="M252.9,410.2c-23.6,39.4-66.7,65.9-115.9,65.9c23.6,39.4,66.7,65.9,115.9,65.9s92.4-26.4,115.9-65.9
			C319.6,476.1,276.5,449.6,252.9,410.2z"/>
		<path class="st0" d="M368.9,206.1L368.9,206.1c49.4,0,92.6,26.6,116.2,66.1c12-20.2,18.9-43.8,18.9-68.9
			c0-74.5-60.3-134.9-134.7-135c11.9,20.1,18.8,43.6,18.8,68.6C388,162.2,381,185.9,368.9,206.1L368.9,206.1z"/>
		<path class="st0" d="M136.9,206.1C136.9,206.1,136.9,206.1,136.9,206.1c-12-20.2-19-43.9-19-69.1s6.8-48.6,18.8-68.6
			C62.3,68.4,2,128.9,2,203.3c0,25.2,6.9,48.8,18.9,68.9C44.4,232.6,87.5,206.1,136.9,206.1L136.9,206.1z"/>
		<path class="st1" d="M253,271.9C253,271.9,252.9,271.9,253,271.9C252.9,271.9,253,271.9,253,271.9L253,271.9z"/>
		<path class="st1" d="M252.9,271.9L252.9,271.9C252.9,271.9,252.9,271.9,252.9,271.9C252.9,271.9,252.9,271.9,252.9,271.9z"/>
		<path class="st1" d="M252.9,271.9C252.9,271.9,253,271.9,252.9,271.9c0.8-1.3,1.6-2.6,2.4-3.9c10.5-19.2,16.6-41.2,16.6-64.8
			c0-25.3-7-48.9-19-69.1c-12.1,20.2-19,43.8-19,69.1c0,23.5,6,45.6,16.6,64.8C251.3,269.4,252.1,270.6,252.9,271.9
			C252.9,271.9,252.9,271.9,252.9,271.9L252.9,271.9z"/>
		<path class="st1" d="M252.9,271.9C252.9,271.9,252.9,271.9,252.9,271.9C252.8,271.9,252.9,272,252.9,271.9
			C252.9,272,253,271.9,252.9,271.9C253,271.9,252.9,271.9,252.9,271.9z"/>
		<path class="st0" d="M369.2,338.3c11.9,20.1,18.8,43.6,18.8,68.6s-7,49-19,69.1h0.1c74.6,0,135-60.4,135-135
			c0-25.2-6.9-48.8-18.9-68.9C461.5,311.7,418.5,338.2,369.2,338.3L369.2,338.3z"/>
		<path class="st1" d="M368.9,206.1c-47.6,0-89.5,24.7-113.5,62c-0.8,1.3-1.5,2.6-2.2,3.9C302.4,271.9,345.3,245.5,368.9,206.1z"/>
		<path class="st1" d="M253.2,271.9c-0.1,0.1-0.1,0.2-0.1,0.3c0.8,1.3,1.6,2.7,2.3,4c24,37.4,65.9,62.1,113.6,62.1h0.3
			C345.8,298.6,302.6,272,253.2,271.9L253.2,271.9z"/>
		<path class="st1" d="M253,271.9h0.2H253z"/>
		<path class="st1" d="M253.2,271.9c0.8-1.3,1.5-2.6,2.2-3.9c-0.8,1.3-1.6,2.6-2.4,3.9H253.2z"/>
		<path class="st1" d="M252.9,272c0,0.1,0.1,0.1,0.1,0.1c0.1-0.1,0.1-0.2,0.1-0.3h-0.2C253,271.9,252.9,272,252.9,272L252.9,272z"/>
		<path class="st0" d="M136.7,338.3c-49.3-0.1-92.3-26.6-115.8-66.1C8.9,292.4,2,315.9,2,341c0,74.6,60.4,135,135,135h0.1
			C125,455.8,118,432.1,118,406.9C117.9,381.9,124.8,358.4,136.7,338.3L136.7,338.3z"/>
		<g class="st2">
			<path class="st3" d="M252.9,134.2c12.1,20.2,19,43.8,19,69.1c0,23.5-6,45.5-16.6,64.8c24-37.3,65.9-61.9,113.5-61.9
				c12.1-20.2,19-43.9,19-69.1S381,88.4,369,68.4h-0.3C319.6,68.3,276.5,94.7,252.9,134.2L252.9,134.2z"/>
			<path class="st3" d="M137,206.1c47.6,0,89.5,24.7,113.6,62C240,248.8,234,226.7,234,203.2c0-25.3,7-48.9,19-69.1
				c-23.6-39.5-66.7-65.9-116-65.9h-0.3c-11.9,20.1-18.8,43.6-18.8,68.6C117.9,162.2,124.9,185.9,137,206.1L137,206.1z"/>
			<path class="st3" d="M369.2,338.3h-0.3c-47.7,0-89.6-24.7-113.6-62.1c10.5,19.2,16.6,41.3,16.6,64.8c0,25.3-7,48.9-19,69.1
				c23.6,39.4,66.7,65.9,115.9,65.9c12.1-20.2,19-43.9,19-69.1C388,381.9,381,358.4,369.2,338.3L369.2,338.3z"/>
			<path class="st3" d="M369,206.1C369,206.1,368.9,206.1,369,206.1c-23.6,39.4-66.6,65.7-115.8,65.9l0,0
				c49.4,0.1,92.5,26.7,116,66.4c49.3-0.1,92.3-26.6,115.8-66.1C461.5,232.6,418.4,206.1,369,206.1L369,206.1z"/>
			<path class="st3" d="M252.9,410.2c-12.1-20.2-19-43.8-19-69.1c0-23.5,6-45.5,16.6-64.8c-24,37.3-65.9,62-113.6,62h-0.3
				c-11.9,20.1-18.8,43.6-18.8,68.6s7,49,19.1,69.1C186.3,476.1,229.3,449.7,252.9,410.2L252.9,410.2z"/>
			<path class="st3" d="M136.7,338.3c23.4-39.7,66.6-66.3,116-66.4l0,0c-49.2-0.1-92.2-26.5-115.7-65.9H137
				c-49.4,0-92.6,26.6-116.1,66.1C44.3,311.7,87.4,338.2,136.7,338.3L136.7,338.3z"/>
		</g>
		<path class="st1" d="M137,206.1c23.5,39.4,66.5,65.7,115.7,65.9c-0.8-1.3-1.5-2.6-2.2-3.9C226.5,230.8,184.7,206.2,137,206.1
			L137,206.1z"/>
		<path class="st1" d="M252.7,271.9c-49.4,0.1-92.6,26.7-116,66.4h0.3c47.6,0,89.5-24.6,113.6-62c0.8-1.4,1.6-2.8,2.4-4.1
			C252.8,272.2,252.8,272,252.7,271.9z"/>
		<path class="st1" d="M252.9,271.9h-0.2H252.9z"/>
		<path class="st1" d="M250.5,268.1c0.7,1.3,1.4,2.6,2.2,3.9h0.2C252.1,270.6,251.3,269.3,250.5,268.1z"/>
		<path class="st1" d="M252.9,272L252.9,272l-0.3-0.1c0.1,0.1,0.1,0.2,0.1,0.3C252.9,272.2,252.9,272.1,252.9,272z"/>
		<path class="st1" d="M250.5,276.3c-10.5,19.2-16.6,41.2-16.6,64.8c0,25.3,7,48.9,19,69.1c12.1-20.2,19-43.8,19-69.1
			c0-23.5-6-45.6-16.6-64.8c-0.8-1.3-1.6-2.6-2.4-3.9C252.1,273.7,251.3,275,250.5,276.3L250.5,276.3z"/>
		<path class="st1" d="M252.9,272.3c0.8,1.3,1.6,2.6,2.4,3.9c-0.8-1.3-1.6-2.7-2.3-4C253,272.3,252.9,272.3,252.9,272.3L252.9,272.3
			z"/>
		<path class="st1" d="M252.9,272.2c-0.8,1.3-1.6,2.8-2.4,4.1c0.9-1.3,1.7-2.6,2.4-4C252.9,272.3,252.9,272.3,252.9,272.2z"/>
		<path class="st1" d="M252.9,272.2c0,0.1,0.1,0.1,0.1,0.1c0-0.1,0.1-0.1,0.1-0.1c0-0.1-0.1-0.1-0.1-0.1S252.9,272.2,252.9,272.2z"
			/>
	</g>
</g>
</svg>
