<?xml version="1.0" encoding="utf-8"?>
<!-- Generator: Adobe Illustrator 27.5.0, SVG Export Plug-In . SVG Version: 6.00 Build 0)  -->
<svg version="1.1" id="Layer_1" xmlns="http://www.w3.org/2000/svg" xmlns:xlink="http://www.w3.org/1999/xlink" x="0px" y="0px"
	 viewBox="0 0 992.8 991.8" style="enable-background:new 0 0 992.8 991.8;" xml:space="preserve">
<style type="text/css">
	.st0{fill:#6750A4;}
</style>
<path class="st0" d="M496.3,0.1c136-2,260.1,54.5,350.2,145.2s146.2,215.5,146.3,350.1c0,135.3-56.3,259.4-146.5,349.7
	S632,991.8,496.6,991.8s-259-56.2-349.4-146.2C56.7,755.5,0.1,631.5,0,495.6c-0.1-135.1,56.3-260,146.5-350.5
	C236.7,54.5,360.8-1.9,496.3,0.1z M496.4,609c28.3-56.9,56.4-113.2,84.3-169.3s55.8-112,83.7-168.1h-336
	c28,56.3,55.9,112.2,83.8,168.3S468.1,552.2,496.4,609L496.4,609L496.4,609z M450.8,719.8c-29.7-59.5-59.3-118.6-88.8-177.5
	s-58.9-117.7-88.2-176.4c-0.2,0.1-0.5,0.3-0.8,0.4s-0.5,0.3-0.8,0.4v353.1H450.8L450.8,719.8z M720.8,366.8
	c-0.3-0.2-0.6-0.3-0.9-0.5s-0.6-0.3-0.9-0.5c-29.4,58.8-58.8,117.6-88.2,176.5s-59,117.9-88.6,177.1h178.6L720.8,366.8L720.8,366.8
	L720.8,366.8z M246.4,179.4h500.2C677.3,121.1,588,91.2,498.2,90.9S317.9,119.6,246.4,179.4L246.4,179.4L246.4,179.4z M180.6,245.2
	c-65.3,80.2-91.7,175.3-88.7,265.3s35.7,174.8,88.7,234.2V245.2z M812.3,747.3c31.3-39.7,54.3-81.5,69.1-125.5
	c14.8-44.1,21.3-90.5,19.8-139.5c-1.4-44.1-9.8-85.7-24.7-125.2s-36.5-77-64.2-112.9L812.3,747.3L812.3,747.3L812.3,747.3z
	 M746.5,814.1l-0.8-1.2l-0.8-1.2H246.5c0.9,0.9,1.4,1.6,1.9,2.2s0.8,0.9,1.2,1.2c1.7,1.3,3.4,2.5,5.1,3.8c1.7,1.2,3.4,2.5,5.2,3.6
	c21.9,14.7,44.9,27,68.7,37.4s48.5,19,73.7,26.1c21.5,6.1,43.1,10.6,64.9,12.9c21.8,2.3,43.9,2.2,66.2-0.9
	c29.1-4.1,57.4-11,84.8-20.2s54.1-20.9,80-34.5c8.3-4.3,16.4-9.2,24.4-14.2S738.5,818.9,746.5,814.1L746.5,814.1L746.5,814.1z"/>
</svg>
