<?xml version="1.0" encoding="utf-8"?>
<!-- Generator: Adobe Illustrator 27.5.0, SVG Export Plug-In . SVG Version: 6.00 Build 0)  -->
<svg version="1.1" id="Layer_1" xmlns="http://www.w3.org/2000/svg" xmlns:xlink="http://www.w3.org/1999/xlink" x="0px" y="0px"
	 viewBox="0 0 993.8 992.8" style="enable-background:new 0 0 993.8 992.8;" xml:space="preserve">
<style type="text/css">
	.st0{fill:#D0BCFF;}
</style>
<path class="st0" d="M496.8,0.6c136-2,260.1,54.5,350.2,145.2s146.2,215.5,146.3,350.1c0,135.3-56.3,259.4-146.5,349.7
	S632.5,992.3,497.1,992.3c-134.9,0-259-56.2-349.4-146.2C57.2,756,0.6,632,0.5,496.2C0.4,361.1,56.8,236.2,147,145.7
	S361.3-1.3,496.8,0.6z M496.9,609.5c28.3-56.9,56.4-113.2,84.3-169.3c27.9-56.1,55.8-112,83.7-168.1H328.9
	c28,56.3,55.9,112.2,83.8,168.3S468.6,552.7,496.9,609.5L496.9,609.5z M451.3,720.3c-29.7-59.5-59.3-118.6-88.8-177.5
	c-29.5-58.9-58.9-117.7-88.2-176.4c-0.2,0.1-0.5,0.3-0.8,0.4s-0.5,0.3-0.8,0.4v353.1L451.3,720.3L451.3,720.3z M721.3,367.3
	c-0.3-0.2-0.6-0.3-0.9-0.5s-0.6-0.3-0.9-0.5c-29.4,58.8-58.8,117.6-88.2,176.5s-59,117.9-88.6,177.1h178.6L721.3,367.3L721.3,367.3z
	 M246.9,179.9h500.2c-69.3-58.3-158.6-88.2-248.4-88.5S318.4,120.1,246.9,179.9L246.9,179.9z M181.1,245.8
	C115.8,326,89.4,421.1,92.4,511.1s35.7,174.8,88.7,234.2V245.8z M812.8,747.9c31.3-39.7,54.3-81.5,69.1-125.5
	c14.8-44.1,21.3-90.5,19.8-139.5c-1.4-44.1-9.8-85.7-24.7-125.2s-36.5-77-64.2-112.9L812.8,747.9L812.8,747.9z M747,814.7l-0.8-1.2
	l-0.8-1.2H247c0.9,0.9,1.4,1.6,1.9,2.2s0.8,0.9,1.2,1.2c1.7,1.3,3.4,2.5,5.1,3.8c1.7,1.2,3.4,2.5,5.2,3.6
	c21.9,14.7,44.9,27,68.7,37.4s48.5,19,73.7,26.1c21.5,6.1,43.1,10.6,64.9,12.9c21.8,2.3,43.9,2.2,66.2-0.9
	c29.1-4.1,57.4-11,84.8-20.2s54.1-20.9,80-34.5c8.3-4.3,16.4-9.2,24.4-14.2S739,819.5,747,814.7L747,814.7z"/>
</svg>
