<?xml version="1.0" encoding="UTF-8"?>
<svg id="Layer_1" data-name="Layer 1" xmlns="http://www.w3.org/2000/svg" viewBox="0 0 992.8 991.75">
  <defs>
    <style>
      .cls-1 {
        fill: #3a6a1e;
      }
    </style>
  </defs>
  <path class="cls-1" d="m496.3.05c136-2,260.1,54.5,350.2,145.2,90.1,90.7,146.2,215.5,146.3,350.1,0,135.3-56.3,259.4-146.5,349.7s-214.3,146.7-349.7,146.7-259-56.2-349.4-146.2C56.7,755.45.1,631.45,0,495.65-.1,360.55,56.3,235.65,146.5,145.15,236.7,54.55,360.8-1.85,496.3.05Zm.1,608.9c28.3-56.9,56.4-113.2,84.3-169.3,27.9-56.1,55.8-112,83.7-168.1h-336c28,56.3,55.9,112.2,83.8,168.3s55.9,112.3,84.2,169.1h0Zm-45.6,110.8c-29.7-59.5-59.3-118.6-88.8-177.5-29.5-58.9-58.9-117.7-88.2-176.4-.2.1-.5.3-.8.4s-.5.3-.8.4v353.1h178.6Zm270-353c-.3-.2-.6-.3-.9-.5s-.6-.3-.9-.5c-29.4,58.8-58.8,117.6-88.2,176.5-29.4,58.9-59,117.9-88.6,177.1h178.6v-352.6h0ZM246.4,179.35h500.2c-69.3-58.3-158.6-88.2-248.4-88.5s-180.3,28.7-251.8,88.5h0Zm-65.8,65.9c-65.3,80.2-91.7,175.3-88.7,265.3,3,90,35.7,174.8,88.7,234.2V245.25Zm631.7,502.1c31.3-39.7,54.3-81.5,69.1-125.5,14.8-44.1,21.3-90.5,19.8-139.5-1.4-44.1-9.8-85.7-24.7-125.2s-36.5-77-64.2-112.9v503.1h0Zm-65.8,66.8l-.8-1.2-.8-1.2H246.5c.9.9,1.4,1.6,1.9,2.2s.8.9,1.2,1.2c1.7,1.3,3.4,2.5,5.1,3.8,1.7,1.2,3.4,2.5,5.2,3.6,21.9,14.7,44.9,27,68.7,37.4s48.5,19,73.7,26.1c21.5,6.1,43.1,10.6,64.9,12.9,21.8,2.3,43.9,2.2,66.2-.9,29.1-4.1,57.4-11,84.8-20.2s54.1-20.9,80-34.5c8.3-4.3,16.4-9.2,24.4-14.2s15.9-10.2,23.9-15h0Z"/>
</svg>